<?xml version="1.0" encoding="UTF-8" standalone="no"?>
<svg
   xmlns="http://www.w3.org/2000/svg"
   version="1.1"
   width="23px" height="23px" viewBox="0 0 368 368">
  <defs>
    <clipPath id="clipPath16">
      <path d="M 0,295 1559,295 1559,0 0,0 0,295 z"
         id="path18" />
    </clipPath>
    <clipPath id="clipPath54">
      <path d="M 0,295 1559,295 1559,0 0,0 0,295 z"
         id="path56" />
    </clipPath>
  </defs>
  <g transform="matrix(1.25,0,0,-1.25,0,368.75)">
    <g>
      <g clip-path="url(#clipPath54)">
        <g transform="translate(54.14,81.84)">
          <path d="m 0,0 c 19.17,0 31.74,5.54 38.45,16.94 l 0.09,0.14 c 5.27,8.40 7.94,22.89 7.94,43.04 l 0,140.90 c -55.08,-20.27 -94.37,-73.21 -94.37,-135.33 0,-15.22 2.36,-29.89 6.74,-43.67 C -34.27,7.22 -20.81,0 0,0"
             style="fill:#FFFFFF" />
        </g>
        <g transform="translate(150.43,291.73)">
          <path d="m 0,0 c -8.91,0 -17.62,-0.81 -26.09,-2.36 l 0,-150.59 c 0,-25.50 -6.01,-45.08 -17.86,-58.20 -12.01,-13.29 -29.97,-20.04 -53.39,-20.04 -6.75,0 -13.02,0.55 -18.81,1.65 26.24,-35.64 68.5,-58.78 116.16,-58.78 79.62,0 144.16,64.54 144.16,144.16 C 144.16,-64.54 79.62,0 0,0"
             style="fill:#FFFFFF" />
        </g>
      </g>
    </g>
  </g>
</svg>