<?xml version="1.0" encoding="UTF-8" standalone="no"?>
<svg
   xmlns="http://www.w3.org/2000/svg"
   version="1.1"
   width="190px" height="36px" viewBox="0 0 1950 370">
  <defs>
    <clipPath id="clipPath16">
      <path d="M 0,295 1559,295 1559,0 0,0 0,295 z"
         id="path18" />
    </clipPath>
    <clipPath id="clipPath54">
      <path d="M 0,295 1559,295 1559,0 0,0 0,295 z"
         id="path56" />
    </clipPath>
  </defs>
  <g transform="matrix(1.25,0,0,-1.25,0,368.75)">
    <g>
      <g clip-path="url(#clipPath16)">
        <g transform="translate(464.94,66.68)">
          <path d="m 0,0 c 5.34,8.48 8.02,22.36 8.02,41.64 l 0,144.61 10.59,0 0,-147.50 c 0,-43.38 -19.69,-65.07 -59.06,-65.07 -25.89,0 -43.01,9.35 -51.36,28.05 1.71,0.38 3.37,0.91 4.97,1.59 1.60,0.67 3.26,1.39 4.97,2.16 7.06,-15.61 21.18,-23.42 42.37,-23.42 19.25,0 32.42,5.97 39.48,17.93"
             style="fill:#fff" />
        </g>
        <g transform="translate(665.23,44.98)">
          <path d="m 0,0 -9.95,0 0,23.42 C -20.43,5.30 -39.16,-3.76 -66.12,-3.76 c -38.09,0 -57.13,17.83 -57.13,53.50 l 0,100.36 9.95,0 0,-97.46 c 0,-16.19 3.31,-27.96 9.95,-35.28 7.27,-8.67 19.58,-13.01 36.91,-13.01 31.45,0 49.75,12.72 54.89,38.17 0.42,2.89 0.80,6.50 1.12,10.84 0.32,4.33 0.48,9.49 0.48,15.47 l 0,81.27 9.95,0 L 0,0 z"
             style="fill:#fff" />
        </g>
        <g transform="translate(779.83,49.61)">
          <path d="m 0,0 c 13.48,0 24.60,2.60 33.38,7.80 10.48,5.97 15.72,14.75 15.72,26.32 0,13.88 -11.02,23.52 -33.06,28.92 -0.64,0.19 -1.66,0.47 -3.04,0.86 -1.39,0.38 -3.26,0.76 -5.61,1.15 -27.17,6.36 -44.72,12.33 -52.64,17.93 -8.98,6.36 -13.48,15.04 -13.48,26.03 0,13.10 6.20,23.23 18.61,30.36 10.69,6.16 23.53,9.25 38.52,9.25 15.40,0 28.13,-3.66 38.19,-10.99 10.27,-7.71 16.26,-18.41 17.97,-32.10 l -9.95,0 c -3.42,23.32 -19.25,34.99 -47.50,34.99 -11.77,0 -21.82,-2.31 -30.17,-6.94 -10.06,-5.59 -15.08,-13.40 -15.08,-23.42 0,-15.04 17.01,-26.41 51.03,-34.12 C 3.31,75.67 4.38,75.38 6.1,75.19 23.64,71.14 35.84,67.00 42.69,62.76 54.03,56.01 59.70,46.37 59.70,33.83 59.70,20.34 53.39,9.63 40.76,1.73 29.42,-5.01 15.93,-8.38 0.32,-8.38 c -17.76,0 -32.31,3.95 -43.65,11.85 -11.77,8.48 -18.40,20.63 -19.90,36.44 l 9.95,0 C -47.93,13.30 -30.17,0 0,0"
             style="fill:#fff" />
        </g>
        <g transform="translate(893.13,236.16)">
          <path d="m 0,0 0,-41.07 33.38,0 0,-8.09 -33.38,0 0,-142.01 -10.27,0 L -10.27,0 0,0 z"
             style="fill:#fff" />
        </g>
        <g transform="translate(1072.25,54.82)">
          <path d="m 0,0 c -11.98,-9.06 -27.07,-13.59 -45.26,-13.59 -23.96,0 -42.37,7.90 -55.21,23.71 -11.34,14.26 -17.01,32.48 -17.01,54.66 0,22.74 5.77,41.07 17.33,54.95 12.83,15.80 31.45,23.71 55.85,23.71 30.17,0 49.96,-10.89 59.38,-32.68 L 6.42,105.56 c -2.78,7.32 -7.91,13.78 -15.40,19.37 -9.63,6.94 -21.40,10.41 -35.31,10.41 -21.40,0 -37.55,-7.23 -48.47,-21.69 -9.62,-12.53 -14.44,-28.82 -14.44,-48.87 0,-20.24 4.81,-36.54 14.44,-48.88 11.12,-14.46 27.28,-21.69 48.47,-21.69 13.05,0 24.44,3.22 34.18,9.68 9.73,6.45 16.21,15.47 19.42,27.04 l 8.66,-4.62 C 14.33,15.51 8.34,6.74 0,0"
             style="fill:#fff" />
        </g>
        <g transform="translate(1158.91,70.72)">
          <path d="m 0,0 c 11.12,-14.46 27.28,-21.69 48.47,-21.69 21.18,0 37.44,7.23 48.79,21.69 9.63,12.33 14.44,28.63 14.44,48.88 0,20.05 -4.81,36.34 -14.44,48.87 C 85.91,112.22 69.65,119.45 48.47,119.45 27.06,119.45 10.91,112.22 0,97.75 -9.62,85.22 -14.44,68.93 -14.44,48.88 -14.44,28.63 -9.62,12.33 0,0 m -7.38,103.83 c 12.84,15.80 31.45,23.71 55.85,23.71 24.39,0 43.11,-7.90 56.17,-23.71 C 116.2,89.95 121.97,71.62 121.97,48.88 121.97,26.12 116.2,7.71 104.64,-6.36 91.37,-21.79 72.65,-29.50 48.47,-29.50 c -24.39,0 -43.01,7.71 -55.85,23.13 -11.55,14.07 -17.33,32.48 -17.33,55.24 0,22.74 5.77,41.07 17.33,54.95"
             style="fill:#fff" />
        </g>
        <path d="m 1333.73,44.98 -13.14,0 0,150.89 10,0 0,-150.89 z m 0,179.26 -13.14,0 0,29.53 10,0 0,-29.53 z"
           style="fill:#fff" />
        <g transform="translate(1374.95,195.09)">
          <path d="m 0,0 10.27,0 0,-24.58 c 10.48,18.51 29.21,27.76 56.17,27.76 38.08,0 57.13,-17.93 57.13,-53.79 l 0,-99.49 -10.27,0 0,96.60 c 0,16.00 -3.21,27.76 -9.63,35.28 -7.49,8.67 -19.79,13.01 -36.91,13.01 -31.45,0 -49.75,-12.82 -54.89,-38.46 -0.43,-2.89 -0.80,-6.50 -1.12,-10.84 -0.32,-4.33 -0.48,-9.4 -0.48,-15.18 l 0,-80.40 -10.27,0 L 0,0 z"
             style="fill:#fff" />
        </g>
      </g>
    </g>
    <g>
      <g clip-path="url(#clipPath54)">
        <g transform="translate(54.14,81.84)">
          <path d="m 0,0 c 19.17,0 31.74,5.54 38.45,16.94 l 0.09,0.14 c 5.27,8.40 7.94,22.89 7.94,43.04 l 0,140.90 c -55.08,-20.27 -94.37,-73.21 -94.37,-135.33 0,-15.22 2.36,-29.89 6.74,-43.67 C -34.27,7.22 -20.81,0 0,0"
             style="fill:#FFF" />
        </g>
        <g transform="translate(150.43,291.73)">
          <path d="m 0,0 c -8.91,0 -17.62,-0.81 -26.09,-2.36 l 0,-150.59 c 0,-25.50 -6.01,-45.08 -17.86,-58.20 -12.01,-13.29 -29.97,-20.04 -53.39,-20.04 -6.75,0 -13.02,0.55 -18.81,1.65 26.24,-35.64 68.5,-58.78 116.16,-58.78 79.62,0 144.16,64.54 144.16,144.16 C 144.16,-64.54 79.62,0 0,0"
             style="fill:#FFF" />
        </g>
      </g>
    </g>
  </g>
</svg>